<svg width="246" height="28" viewBox="0 0 246 28" fill="none" xmlns="http://www.w3.org/2000/svg">
<g id="path880">
<mask id="path-1-inside-1_546_195" fill="white">
<path d="M0 0V1.35754V2.71456L7.51375 2.74557L15.028 2.77606L15.6058 2.91817L16.1835 3.06028L16.8336 3.27681L17.4832 3.49333L18.1694 3.82354L18.8552 4.15376L19.5166 4.59611L20.1781 5.03846L20.991 5.81877L21.8038 6.59908L22.2855 7.26726L22.7666 7.93595L23.1474 8.65167L23.5278 9.3679L23.8254 10.2573L24.1226 11.1461L24.2626 11.9502L24.4032 12.7548L24.3577 13.9402L24.3122 15.1252L24.0972 15.9722L23.8823 16.8186L23.7024 17.2842L23.5226 17.7498L23.133 18.5048L22.7433 19.2598L22.2441 19.9332L21.7449 20.6065L21.1693 21.1822L20.5936 21.7579L19.9171 22.2596L19.2402 22.7609L18.3947 23.1955L17.5493 23.6296L16.7948 23.8823L16.0409 24.135L15.3226 24.2786L14.6048 24.4218L7.3024 24.4569L0 24.4921V25.7989V27.1053H7.15719H14.3149L15.1371 27.0159L15.9592 26.9265L16.7215 26.7513L17.4832 26.5756L18.203 26.3229L18.9229 26.0702L19.6846 25.6873L20.4468 25.3049L21.1243 24.8528L21.8013 24.4006L22.4973 23.8058L23.1939 23.2105L23.7582 22.5547L24.3225 21.8989L24.8641 21.0783L25.4057 20.2582L25.7783 19.4696L26.1503 18.6815L26.3746 18.0113L26.5984 17.3416L26.7596 16.6145L26.9203 15.8874L27.0201 14.7231L27.1198 13.5589L27.0211 12.3946L26.9229 11.2308L26.7519 10.511L26.5813 9.79113L26.3591 9.11417L26.1369 8.43669L25.8243 7.75922L25.5121 7.08225L25.1478 6.48952L24.784 5.8968L24.3375 5.30407L23.891 4.71134L23.1851 4.00182L22.4787 3.29179L21.8436 2.80913L21.2085 2.32596L20.4602 1.87688L19.712 1.42782L18.7963 1.05627L17.8806 0.684196L17.0827 0.481621L16.2843 0.279053L15.6564 0.175186L15.028 0.071312L7.51375 0.0356522L0 0ZM245.364 0L237.892 0.0356598L230.42 0.0713196L229.792 0.175186L229.164 0.27906L228.381 0.477493L227.599 0.675934L226.681 1.04128L225.763 1.40716L224.894 1.92908L224.024 2.45154L223.412 2.94246L222.8 3.43339L222.115 4.13309L221.43 4.83227L220.867 5.61827L220.302 6.40479L219.796 7.42075L219.29 8.4367L219.04 9.19841L218.791 9.96064L218.657 10.6159L218.524 11.2706L218.438 12.0913L218.353 12.9119L218.345 12.9202C218.348 12.9284 218.349 12.9397 218.342 12.9532C218.338 12.9619 218.335 12.9708 218.332 12.9796C218.332 12.9844 218.332 12.9892 218.332 12.9941C218.332 13.0038 218.332 13.0133 218.332 13.023C218.332 13.0332 218.332 13.0433 218.331 13.0535C218.33 13.0662 218.337 13.0783 218.332 13.0912C218.33 13.0945 218.328 13.0974 218.327 13.1C218.327 13.105 218.327 13.1101 218.326 13.115C218.325 13.1176 218.324 13.1196 218.323 13.1222L218.325 13.1191C218.325 13.124 218.323 13.1285 218.322 13.1331L218.323 13.1367C218.327 13.1611 218.324 13.1645 218.312 13.1702C218.314 13.1799 218.317 13.1874 218.313 13.1982C218.311 13.2016 218.308 13.2048 218.306 13.208L218.305 13.2127C218.305 13.2152 218.303 13.2179 218.303 13.2179C218.303 13.2201 218.303 13.2222 218.303 13.2241L218.368 14.378L218.431 15.009L218.532 16.011L218.733 16.8383L218.933 17.6656L219.16 18.3002L219.388 18.9353L219.85 19.8433L220.312 20.7513L220.835 21.4944L221.358 22.2375L222.289 23.1687L223.221 24.0999L223.964 24.6234L224.707 25.1463L225.615 25.6094L226.523 26.0724L227.243 26.3246L227.963 26.5767L228.767 26.7597L229.571 26.9421L230.206 27.0129L230.841 27.0832L238.101 27.0946L245.362 27.1054V25.7985V24.4916L238.101 24.4565L230.841 24.4213L230.123 24.2782L229.405 24.135L228.666 23.887L227.927 23.6395L227.288 23.3361L226.648 23.0328L225.871 22.5129L225.093 21.9925L224.28 21.1786L223.466 20.3647L222.945 19.587L222.425 18.8098L222.122 18.1705L221.819 17.5313L221.571 16.7934L221.324 16.0554L221.193 15.304L221.062 14.5527V14.3046V14.2974C220.975 13.8741 221.058 13.2662 221.065 12.8913V12.7621V12.5492L221.227 11.7141L221.389 10.879L221.619 10.2083L221.85 9.5375L222.188 8.86054L222.527 8.1841L222.955 7.54848L223.384 6.91286L224.17 6.10153L224.957 5.29073L225.615 4.81789L226.272 4.34505L226.92 3.99624L227.568 3.64742L228.275 3.38852L228.981 3.12962L229.701 2.95186L230.421 2.77409L237.893 2.74412L245.364 2.71467V1.35765L245.364 0ZM72.8912 0.0971527L72.9196 7.9499L72.9475 15.8027L73.1692 16.6915L73.3903 17.5808L73.6601 18.3208L73.9293 19.0614L74.3035 19.7947L74.6776 20.5279L75.1406 21.2137L75.6031 21.8989L76.1767 22.5568L76.7498 23.2151L77.3849 23.7681L78.02 24.321L78.8283 24.8641L79.636 25.4067L80.4385 25.7865L81.2405 26.1664L82.0007 26.4149L82.7613 26.663L83.4812 26.8097L84.2005 26.957L84.7933 27.0195L85.386 27.0826L86.2573 27.094L87.1285 27.1059L87.9507 27.0165L88.7729 26.9271L89.5346 26.7514L90.2968 26.5757L91.0167 26.324L91.736 26.0724L92.644 25.6094L93.5519 25.1463L94.295 24.6234L95.0381 24.0999L95.9693 23.1687L96.9005 22.2375L97.424 21.4944L97.947 20.7513L98.41 19.8433L98.873 18.9353L99.1247 18.216L99.3764 17.4961L99.5521 16.7339L99.7278 15.9722L99.8172 15.15L99.9066 14.3279V7.21254V0.0972061H98.5991H97.2922L97.2576 7.35723L97.223 14.6173L97.0845 15.3076L96.9455 15.9986L96.7233 16.705L96.5016 17.4114L96.1729 18.1033L95.8443 18.7948L95.3167 19.5849L94.7896 20.3745L93.9824 21.1817L93.1752 21.9889L92.3928 22.5108L91.6104 23.0333L90.9717 23.3366L90.3325 23.64L89.5945 23.887L88.8566 24.1345L88.1052 24.2652L87.3533 24.3965H86.3518H85.3498L84.5147 24.2348L83.6796 24.0725L83.0089 23.8425L82.3381 23.6121L81.6617 23.2736L80.9847 22.9346L80.3491 22.5062L79.7135 22.0773L78.896 21.2845L78.0784 20.4918L77.5539 19.756L77.0294 19.0201L76.6227 18.1736L76.2155 17.3266L76.0336 16.7339L75.8517 16.1412L75.7142 15.5908L75.5768 15.041L75.5463 7.56911L75.5153 0.0972061H74.2032L72.8912 0.0971527ZM157.751 0.0971527L156.756 0.267166L155.762 0.43718L154.873 0.734322L153.984 1.03197L153.142 1.45366L152.3 1.87534L151.578 2.37143L150.856 2.86752L150.252 3.40651L149.648 3.9455L149.07 4.58525L148.493 5.225L147.984 5.98413L147.474 6.74326L147.068 7.59023L146.662 8.43669L146.443 9.11417L146.223 9.79165L146.054 10.511L145.886 11.2308L145.799 12.162L145.711 13.0933V20.0995H145.712V27.1058H147.066H148.421V19.8779V12.6499L148.552 11.898L148.683 11.1461L148.971 10.2846L149.259 9.42371L149.527 8.88783L149.794 8.35194L150.269 7.63261L150.744 6.91275L151.467 6.16241L152.189 5.41207L152.835 4.92476L153.481 4.43797L154.105 4.09432L154.729 3.75119L155.401 3.48505L156.073 3.21893L156.967 2.99464L157.862 2.77037H159.258H160.655L161.559 2.99671L162.462 3.22305L163.204 3.52226L163.947 3.82198L164.545 4.17493L165.143 4.52789L165.741 4.97488L166.338 5.42189L167.012 6.12469L167.687 6.828L168.093 7.39697L168.498 7.96592L168.917 8.7886L169.336 9.61078L169.589 10.3994L169.841 11.1879L169.968 11.9714L170.095 12.7548V19.93V27.1058H171.45H172.804V20.1419V13.178L172.716 12.2468L172.628 11.3156L172.498 10.6805L172.369 10.0454L172.081 9.17722L171.792 8.30905L171.451 7.59282L171.109 6.8771L170.502 5.96346L169.895 5.04982L168.831 3.98839L167.767 2.92695L167.005 2.41174L166.242 1.89652L165.359 1.45366L164.475 1.01079L163.583 0.718819L162.69 0.426331L161.727 0.261482L160.765 0.0971527H159.258H157.751Z"/>
</mask>
<path d="M0 0V1.35754V2.71456L7.51375 2.74557L15.028 2.77606L15.6058 2.91817L16.1835 3.06028L16.8336 3.27681L17.4832 3.49333L18.1694 3.82354L18.8552 4.15376L19.5166 4.59611L20.1781 5.03846L20.991 5.81877L21.8038 6.59908L22.2855 7.26726L22.7666 7.93595L23.1474 8.65167L23.5278 9.3679L23.8254 10.2573L24.1226 11.1461L24.2626 11.9502L24.4032 12.7548L24.3577 13.9402L24.3122 15.1252L24.0972 15.9722L23.8823 16.8186L23.7024 17.2842L23.5226 17.7498L23.133 18.5048L22.7433 19.2598L22.2441 19.9332L21.7449 20.6065L21.1693 21.1822L20.5936 21.7579L19.9171 22.2596L19.2402 22.7609L18.3947 23.1955L17.5493 23.6296L16.7948 23.8823L16.0409 24.135L15.3226 24.2786L14.6048 24.4218L7.3024 24.4569L0 24.4921V25.7989V27.1053H7.15719H14.3149L15.1371 27.0159L15.9592 26.9265L16.7215 26.7513L17.4832 26.5756L18.203 26.3229L18.9229 26.0702L19.6846 25.6873L20.4468 25.3049L21.1243 24.8528L21.8013 24.4006L22.4973 23.8058L23.1939 23.2105L23.7582 22.5547L24.3225 21.8989L24.8641 21.0783L25.4057 20.2582L25.7783 19.4696L26.1503 18.6815L26.3746 18.0113L26.5984 17.3416L26.7596 16.6145L26.9203 15.8874L27.0201 14.7231L27.1198 13.5589L27.0211 12.3946L26.9229 11.2308L26.7519 10.511L26.5813 9.79113L26.3591 9.11417L26.1369 8.43669L25.8243 7.75922L25.5121 7.08225L25.1478 6.48952L24.784 5.8968L24.3375 5.30407L23.891 4.71134L23.1851 4.00182L22.4787 3.29179L21.8436 2.80913L21.2085 2.32596L20.4602 1.87688L19.712 1.42782L18.7963 1.05627L17.8806 0.684196L17.0827 0.481621L16.2843 0.279053L15.6564 0.175186L15.028 0.071312L7.51375 0.0356522L0 0ZM245.364 0L237.892 0.0356598L230.42 0.0713196L229.792 0.175186L229.164 0.27906L228.381 0.477493L227.599 0.675934L226.681 1.04128L225.763 1.40716L224.894 1.92908L224.024 2.45154L223.412 2.94246L222.8 3.43339L222.115 4.13309L221.43 4.83227L220.867 5.61827L220.302 6.40479L219.796 7.42075L219.29 8.4367L219.04 9.19841L218.791 9.96064L218.657 10.6159L218.524 11.2706L218.438 12.0913L218.353 12.9119L218.345 12.9202C218.348 12.9284 218.349 12.9397 218.342 12.9532C218.338 12.9619 218.335 12.9708 218.332 12.9796C218.332 12.9844 218.332 12.9892 218.332 12.9941C218.332 13.0038 218.332 13.0133 218.332 13.023C218.332 13.0332 218.332 13.0433 218.331 13.0535C218.33 13.0662 218.337 13.0783 218.332 13.0912C218.33 13.0945 218.328 13.0974 218.327 13.1C218.327 13.105 218.327 13.1101 218.326 13.115C218.325 13.1176 218.324 13.1196 218.323 13.1222L218.325 13.1191C218.325 13.124 218.323 13.1285 218.322 13.1331L218.323 13.1367C218.327 13.1611 218.324 13.1645 218.312 13.1702C218.314 13.1799 218.317 13.1874 218.313 13.1982C218.311 13.2016 218.308 13.2048 218.306 13.208L218.305 13.2127C218.305 13.2152 218.303 13.2179 218.303 13.2179C218.303 13.2201 218.303 13.2222 218.303 13.2241L218.368 14.378L218.431 15.009L218.532 16.011L218.733 16.8383L218.933 17.6656L219.16 18.3002L219.388 18.9353L219.85 19.8433L220.312 20.7513L220.835 21.4944L221.358 22.2375L222.289 23.1687L223.221 24.0999L223.964 24.6234L224.707 25.1463L225.615 25.6094L226.523 26.0724L227.243 26.3246L227.963 26.5767L228.767 26.7597L229.571 26.9421L230.206 27.0129L230.841 27.0832L238.101 27.0946L245.362 27.1054V25.7985V24.4916L238.101 24.4565L230.841 24.4213L230.123 24.2782L229.405 24.135L228.666 23.887L227.927 23.6395L227.288 23.3361L226.648 23.0328L225.871 22.5129L225.093 21.9925L224.28 21.1786L223.466 20.3647L222.945 19.587L222.425 18.8098L222.122 18.1705L221.819 17.5313L221.571 16.7934L221.324 16.0554L221.193 15.304L221.062 14.5527V14.3046V14.2974C220.975 13.8741 221.058 13.2662 221.065 12.8913V12.7621V12.5492L221.227 11.7141L221.389 10.879L221.619 10.2083L221.85 9.5375L222.188 8.86054L222.527 8.1841L222.955 7.54848L223.384 6.91286L224.17 6.10153L224.957 5.29073L225.615 4.81789L226.272 4.34505L226.92 3.99624L227.568 3.64742L228.275 3.38852L228.981 3.12962L229.701 2.95186L230.421 2.77409L237.893 2.74412L245.364 2.71467V1.35765L245.364 0ZM72.8912 0.0971527L72.9196 7.9499L72.9475 15.8027L73.1692 16.6915L73.3903 17.5808L73.6601 18.3208L73.9293 19.0614L74.3035 19.7947L74.6776 20.5279L75.1406 21.2137L75.6031 21.8989L76.1767 22.5568L76.7498 23.2151L77.3849 23.7681L78.02 24.321L78.8283 24.8641L79.636 25.4067L80.4385 25.7865L81.2405 26.1664L82.0007 26.4149L82.7613 26.663L83.4812 26.8097L84.2005 26.957L84.7933 27.0195L85.386 27.0826L86.2573 27.094L87.1285 27.1059L87.9507 27.0165L88.7729 26.9271L89.5346 26.7514L90.2968 26.5757L91.0167 26.324L91.736 26.0724L92.644 25.6094L93.5519 25.1463L94.295 24.6234L95.0381 24.0999L95.9693 23.1687L96.9005 22.2375L97.424 21.4944L97.947 20.7513L98.41 19.8433L98.873 18.9353L99.1247 18.216L99.3764 17.4961L99.5521 16.7339L99.7278 15.9722L99.8172 15.15L99.9066 14.3279V7.21254V0.0972061H98.5991H97.2922L97.2576 7.35723L97.223 14.6173L97.0845 15.3076L96.9455 15.9986L96.7233 16.705L96.5016 17.4114L96.1729 18.1033L95.8443 18.7948L95.3167 19.5849L94.7896 20.3745L93.9824 21.1817L93.1752 21.9889L92.3928 22.5108L91.6104 23.0333L90.9717 23.3366L90.3325 23.64L89.5945 23.887L88.8566 24.1345L88.1052 24.2652L87.3533 24.3965H86.3518H85.3498L84.5147 24.2348L83.6796 24.0725L83.0089 23.8425L82.3381 23.6121L81.6617 23.2736L80.9847 22.9346L80.3491 22.5062L79.7135 22.0773L78.896 21.2845L78.0784 20.4918L77.5539 19.756L77.0294 19.0201L76.6227 18.1736L76.2155 17.3266L76.0336 16.7339L75.8517 16.1412L75.7142 15.5908L75.5768 15.041L75.5463 7.56911L75.5153 0.0972061H74.2032L72.8912 0.0971527ZM157.751 0.0971527L156.756 0.267166L155.762 0.43718L154.873 0.734322L153.984 1.03197L153.142 1.45366L152.3 1.87534L151.578 2.37143L150.856 2.86752L150.252 3.40651L149.648 3.9455L149.07 4.58525L148.493 5.225L147.984 5.98413L147.474 6.74326L147.068 7.59023L146.662 8.43669L146.443 9.11417L146.223 9.79165L146.054 10.511L145.886 11.2308L145.799 12.162L145.711 13.0933V20.0995H145.712V27.1058H147.066H148.421V19.8779V12.6499L148.552 11.898L148.683 11.1461L148.971 10.2846L149.259 9.42371L149.527 8.88783L149.794 8.35194L150.269 7.63261L150.744 6.91275L151.467 6.16241L152.189 5.41207L152.835 4.92476L153.481 4.43797L154.105 4.09432L154.729 3.75119L155.401 3.48505L156.073 3.21893L156.967 2.99464L157.862 2.77037H159.258H160.655L161.559 2.99671L162.462 3.22305L163.204 3.52226L163.947 3.82198L164.545 4.17493L165.143 4.52789L165.741 4.97488L166.338 5.42189L167.012 6.12469L167.687 6.828L168.093 7.39697L168.498 7.96592L168.917 8.7886L169.336 9.61078L169.589 10.3994L169.841 11.1879L169.968 11.9714L170.095 12.7548V19.93V27.1058H171.45H172.804V20.1419V13.178L172.716 12.2468L172.628 11.3156L172.498 10.6805L172.369 10.0454L172.081 9.17722L171.792 8.30905L171.451 7.59282L171.109 6.8771L170.502 5.96346L169.895 5.04982L168.831 3.98839L167.767 2.92695L167.005 2.41174L166.242 1.89652L165.359 1.45366L164.475 1.01079L163.583 0.718819L162.69 0.426331L161.727 0.261482L160.765 0.0971527H159.258H157.751Z" stroke="white" stroke-width="4" mask="url(#path-1-inside-1_546_195)"/>
</g>
</svg>
