<svg width="88" height="4" viewBox="0 0 88 4" fill="none" xmlns="http://www.w3.org/2000/svg">
<path d="M43.2915 0C42.2321 0.44899 41.2163 1.09074 39.9873 0.902344C29.7602 0.962344 19.7282 1.01204 9.4816 1.08023C6.32573 1.10523 3.16984 1.11543 0.0138885 1.11873C-0.181231 2.372 1.73051 1.57394 2.54966 1.83971C10.602 1.92991 18.7062 1.97034 26.7275 1.96886C27.5979 1.92376 28.7286 2.00516 29.6104 2.04026C33.5691 2.12096 37.5574 1.97186 41.4977 2.19441C42.4709 2.50692 43.4019 3.39366 44.4991 2.85251C46.0888 1.75248 48.1546 2.12241 50.0087 2.04473C62.4148 1.95933 74.829 1.98143 87.2299 1.82983C88.2569 0.952574 85.8926 1.25139 85.2289 1.20157C72.4841 1.03885 59.7332 1.08663 46.9915 0.899651C45.9034 1.01487 45.0718 0.291458 44.1216 0.0447083C43.845 0.0285083 43.5682 0.0149153 43.2915 1.52588e-05V0ZM26.7364 1.97146C26.7284 1.96446 26.7212 1.97446 26.7364 1.97146V1.97146ZM28.4366 0.970482C28.498 0.995982 28.5008 0.986182 28.4366 0.970482V0.970482ZM26.7426 1.97197C26.7496 1.97223 26.7324 1.97397 26.7426 1.97197V1.97197ZM25.9106 1.99057C25.9101 1.99257 25.9146 1.98957 25.9106 1.99057V1.99057ZM29.467 2.04277C29.463 2.04777 29.475 2.0419 29.467 2.04277V2.04277Z" fill="white"/>
</svg>
