<svg width="25" height="24" viewBox="0 0 25 24" fill="none" xmlns="http://www.w3.org/2000/svg">
<path fill-rule="evenodd" clip-rule="evenodd" d="M12.2925 0C5.66248 0 0.29248 5.37 0.29248 12C0.29248 17.31 3.72748 21.795 8.49748 23.385C9.09748 23.49 9.32248 23.13 9.32248 22.815C9.32248 22.53 9.30748 21.585 9.30748 20.58C6.29248 21.135 5.51248 19.845 5.27248 19.17C5.13748 18.825 4.55248 17.76 4.04248 17.475C3.62248 17.25 3.02248 16.695 4.02748 16.68C4.97248 16.665 5.64748 17.55 5.87248 17.91C6.95248 19.725 8.67748 19.215 9.36748 18.9C9.47248 18.12 9.78748 17.595 10.1325 17.295C7.46248 16.995 4.67248 15.96 4.67248 11.37C4.67248 10.065 5.13748 8.985 5.90248 8.145C5.78248 7.845 5.36248 6.615 6.02248 4.965C6.02248 4.965 7.02748 4.65 9.32248 6.195C10.2825 5.925 11.3025 5.79 12.3225 5.79C13.3425 5.79 14.3625 5.925 15.3225 6.195C17.6175 4.635 18.6225 4.965 18.6225 4.965C19.2825 6.615 18.8625 7.845 18.7425 8.145C19.5075 8.985 19.9725 10.05 19.9725 11.37C19.9725 15.975 17.1675 16.995 14.4975 17.295C14.9325 17.67 15.3075 18.39 15.3075 19.515C15.3075 21.12 15.2925 22.41 15.2925 22.815C15.2925 23.13 15.5175 23.505 16.1175 23.385C18.4997 22.5807 20.5697 21.0497 22.0361 19.0074C23.5026 16.965 24.2918 14.5143 24.2925 12C24.2925 5.37 18.9225 0 12.2925 0Z" fill="white"/>
</svg>
