<svg width="29" height="23" viewBox="0 0 29 23" fill="none" xmlns="http://www.w3.org/2000/svg">
<path d="M28.2925 2.72822C27.2521 3.18925 26.1344 3.50076 24.9594 3.64157C26.1718 2.91611 27.0788 1.77434 27.5112 0.429283C26.3722 1.10587 25.1255 1.58211 23.8255 1.8373C22.9512 0.903854 21.7933 0.285149 20.5313 0.0772448C19.2694 -0.130659 17.9742 0.0838706 16.8467 0.687527C15.7192 1.29118 14.8226 2.25019 14.296 3.41566C13.7694 4.58113 13.6423 5.88786 13.9344 7.13296C11.6264 7.01707 9.36848 6.41717 7.30729 5.37219C5.24609 4.32721 3.42765 2.8605 1.96998 1.06725C1.47157 1.92702 1.18498 2.92385 1.18498 3.98547C1.18442 4.94118 1.41977 5.88224 1.87015 6.72517C2.32052 7.5681 2.972 8.28684 3.76677 8.8176C2.84505 8.78827 1.94366 8.53922 1.13763 8.09116V8.16592C1.13754 9.50634 1.6012 10.8055 2.44994 11.843C3.29867 12.8804 4.48021 13.5923 5.79407 13.8578C4.93902 14.0892 4.04256 14.1233 3.17241 13.9575C3.5431 15.1109 4.26518 16.1194 5.23755 16.842C6.20992 17.5646 7.38391 17.965 8.59516 17.9872C6.53899 19.6013 3.99964 20.4769 1.38559 20.473C0.922542 20.4732 0.459883 20.4461 0 20.392C2.6534 22.0981 5.74216 23.0035 8.8967 23C19.5752 23 25.4129 14.1556 25.4129 6.48502C25.4129 6.23581 25.4067 5.98411 25.3955 5.73491C26.531 4.91374 27.5111 3.89687 28.29 2.73196L28.2925 2.72822V2.72822Z" fill="white"/>
</svg>
